# xmcd
#
# Track frame offsets:
#	225
#	9450
#	21825
#	34262
#	46875
#	58725
#	71087
#	86175
#	104700
#	118800
#	128400
#	147600
#	161850
#	178125
#	195150
#	209700
#	223425
#
# Disc length: 3169 seconds
#
# Revision: 1
# Processed by: cddbd v1.5.1PL0 Copyright (c) Steve Scherf et al.
# Submitted via: dBpowerAMP V4.0
#
DISCID=100c5e11
DTITLE=Tom Jones - It's Not Unusual
DYEAR=1900
DGENRE=Pop
TTITLE0=It's Not Unusual
TTITLE1=With These Hands
TTITLE2=Kansas City
TTITLE3=It's Magic
TTITLE4=Promise Her Anything
TTITLE5=Memphis Tennessee
TTITLE6=(Sittin' On) The Dock of The Bay
TTITLE7=If You go Away
TTITLE8=Green Green Grass of Home
TTITLE9=What's New Pussycat
TTITLE10=I'll Never Fall in Love Again
TTITLE11=I'm Coming Home
TTITLE12=Detroit City
TTITLE13=My Prayer
TTITLE14=I Can't Stop Loving You
TTITLE15=Let it be me
TTITLE16=Love me Tonight
EXTD=
EXTT0=
EXTT1=
EXTT2=
EXTT3=
EXTT4=
EXTT5=
EXTT6=
EXTT7=
EXTT8=
EXTT9=
EXTT10=
EXTT11=
EXTT12=
EXTT13=
EXTT14=
EXTT15=
EXTT16=
PLAYORDER=
